<mxfile host="app.diagrams.net" modified="2021-06-16T06:38:22.471Z" agent="5.0 (Macintosh; Intel Mac OS X 10_15_6) AppleWebKit/605.1.15 (KHTML, like Gecko) Version/14.0.3 Safari/605.1.15" etag="Tzl5ZYJrmqJ4IVezEAly" version="14.7.9" type="github">
  <diagram id="sPJPYfgGCWIq3ShJ2Bbt" name="Page-1">
    <mxGraphModel dx="696" dy="552" grid="1" gridSize="10" guides="1" tooltips="1" connect="1" arrows="1" fold="1" page="1" pageScale="1" pageWidth="827" pageHeight="1169" math="0" shadow="0">
      <root>
        <mxCell id="0" />
        <mxCell id="1" parent="0" />
      </root>
    </mxGraphModel>
  </diagram>
</mxfile>
